<svg xmlns="http://www.w3.org/2000/svg" width="301.871" height="265.917" viewBox="0 0 301.871 265.917">
  <g id="Group_1" data-name="Group 1" transform="translate(-488.716 -277.417)">
    <path id="Path_1" data-name="Path 1"  fill="#f5f5dc" d="M488.716,277.417,639.645,428.662,790.587,277.417v52.633L662.821,458.181v62.864l-23.176,22.288-22.376-22.288V458.181L488.716,330.049Z"/>
    <path id="Path_2" data-name="Path 2" fill="#f5f5dc" d="M508.853,355.824l104.09,104.892v54.767l-24.087-21.265V470.145L506.24,388.287l.271-33.393Z"/>
    <path id="Path_3" data-name="Path 3" fill="#f5f5dc" d="M610.33,355.824,506.24,460.715v54.767l24.087-21.265V470.145l82.615-81.858-.271-33.393Z" transform="translate(161)"/>
    <path id="Path_4" data-name="Path 4" fill="#f5f5dc" d="M615.152,397.3l23.714-23.926,28.195-2.331v11.778l-5.62-3.349-5.6,5.95,9.9,10.524-26.876,26.929Z"/>
  </g>
</svg>
